PathFileType	4	(X/Y/Z)	C:/Users/opensim2020/Desktop/walking_exp_matlab/subject02_walking13_straight_01.trc																																																																																																																									
DataRate	CameraRate	NumFrames	NumMarkers	Units	OrigDataRate	OrigDataStartFrame	OrigNumFrames																																																																																																																					
100	100	6	41	mm	100	456	140																																																																																																																					
Frame#	Time	LFHD			RFHD			LBHD			RBHD			C7			T10			CLAV			STRN			RBAK			LSHO			LUPA			LELB			LFRM			LWRA			LWRB			LFIN			RSHO			RUPA			RELB			RFRM			RWRA			RWRB			RFIN			LASI			RASI			LPSI			RPSI			LTHI			LKNE			LTIB			LANK			LHEE			LTOE			RTHI			RKNE			RTIB			RANK			RHEE			RTOE			*39			*40		
		X1	Y1	Z1	X2	Y2	Z2	X3	Y3	Z3	X4	Y4	Z4	X5	Y5	Z5	X6	Y6	Z6	X7	Y7	Z7	X8	Y8	Z8	X9	Y9	Z9	X10	Y10	Z10	X11	Y11	Z11	X12	Y12	Z12	X13	Y13	Z13	X14	Y14	Z14	X15	Y15	Z15	X16	Y16	Z16	X17	Y17	Z17	X18	Y18	Z18	X19	Y19	Z19	X20	Y20	Z20	X21	Y21	Z21	X22	Y22	Z22	X23	Y23	Z23	X24	Y24	Z24	X25	Y25	Z25	X26	Y26	Z26	X27	Y27	Z27	X28	Y28	Z28	X29	Y29	Z29	X30	Y30	Z30	X31	Y31	Z31	X32	Y32	Z32	X33	Y33	Z33	X34	Y34	Z34	X35	Y35	Z35	X36	Y36	Z36	X37	Y37	Z37	X38	Y38	Z38	X39	Y39	Z39	X40	Y40	Z40	X41	Y41	Z41
																																																																																																																												
53	0.52	-294.34799	1737.85522	-1095.77344	-318.23819	1714.75684	-955.5863	-423.34406	1666.83472	-1128.74292	-459.6199	1642.43335	-992.89435	-490.91953	1522.63623	-1060.55518	-545.52466	1246.86804	-1053.51465	-352.4986	1453.01599	-1068.54041	-301.72894	1280.98303	-1064.1571	-551.65491	1346.48694	-1000.47662	-414.47504	1499.22241	-1238.83301	-386.50558	1306.13513	-1334.62561	-345.82309	1169.88281	-1357.4801	-275.2363	1055.78442	-1362.96777	-172.2202	973.40759	-1317.85864	-208.91034	952.15253	-1355.85535	-160.16563	908.09045	-1355.66101	-418.97388	1484.7229	-873.00836	-476.01492	1305.37427	-788.41522	-485.10434	1158.41992	-768.14508	-469.95319	1037.33521	-752.80469	-436.04572	907.30157	-777.9129	-481.90311	907.2326	-743.26196	-449.30313	842.34271	-743.46027	-334.323	980.58521	-1202.1842	-308.55661	975.21478	-949.34393	-532.84979	1032.92212	-1100.2063	-527.4389	1031.17053	-984.63452	-436.27469	671.38025	-1232.77197	-494.8826	475.29715	-1195.28589	-572.04132	295.83926	-1190.91736	-588.66479	72.38593	-1149.54272	-626.82849	46.74664	-1098.52246	-433.06192	31.86191	-1160.86157	-298.12314	686.20459	-858.92316	-234.72885	491.23111	-889.69623	-297.88831	314.75146	-892.96405	-335.54385	127.20932	-932.15173	-363.90833	74.12426	-995.685	-199.68697	55.18963	-895.77759	-408.13519	1802.21484	-1020.5694	NaN	NaN	NaN
54	0.53	-280.96707	1736.2572	-1096.26306	-304.97806	1712.74683	-955.99774	-409.95483	1665.17834	-1129.37317	-445.81839	1640.66931	-992.70416	-477.59164	1520.88928	-1061.43188	-532.41687	1245.17859	-1053.89539	-339.24222	1451.01489	-1069.24683	-288.74707	1278.86304	-1064.93823	-538.68488	1344.70874	-1001.50214	-400.89282	1497.58557	-1239.56384	-370.78381	1305.51013	-1335.94995	-326.92838	1170.34827	-1359.80786	-252.31807	1058.74072	-1365.06274	-146.09146	980.61102	-1320.29041	-182.44313	957.61542	-1357.27515	-131.61627	915.75415	-1357.48096	-406.36459	1482.71863	-873.65979	-464.32651	1303.77393	-789.93024	-474.60727	1156.87024	-769.20239	-461.29752	1035.64905	-753.401	-428.93396	905.32324	-778.02649	-474.53674	906.04614	-743.62805	-443.55673	840.71777	-743.48889	-322.59753	978.08429	-1203.65454	-294.78217	972.82837	-950.19147	-520.40735	1030.95569	-1099.34998	-514.18347	1029.31311	-984.04901	-428.12274	670.26483	-1233.14099	-489.22388	474.97778	-1195.07825	-568.80518	296.6109	-1190.5127	-588.25311	73.24382	-1149.09998	-626.38922	47.88503	-1097.88989	-432.91055	31.82969	-1161.00745	-282.4624	685.25836	-860.20099	-217.91798	489.99365	-892.38348	-270.09518	309.26355	-894.39722	-295.64072	119.50699	-932.38196	-321.64417	65.28824	-995.51135	-154.88837	55.4046	-897.90021	-394.97052	1800.46411	-1021.05554	NaN	NaN	NaN
55	0.54	-267.5567	1734.3761	-1096.43469	-291.88345	1710.70862	-956.20367	-396.45035	1663.43042	-1129.89392	-432.67398	1638.61755	-993.48663	-464.24124	1519.05737	-1062.18823	-519.20789	1243.40222	-1054.0885	-325.89523	1448.92554	-1069.87756	-275.68201	1276.68103	-1065.60522	-526.05066	1343.15063	-1002.58746	-387.19467	1495.82654	-1240.1012	-355.06332	1304.77209	-1337.00964	-308.22318	1170.75549	-1362.05017	-229.89539	1061.599	-1366.854	-120.55307	987.86615	-1322.49768	-156.55414	963.05035	-1358.71509	-104.07671	923.2901	-1359.0304	-392.94196	1480.55664	-874.32281	-453.09097	1302.15259	-791.21265	-464.42163	1155.45349	-770.18628	-452.73178	1034.17749	-754.00543	-421.37909	903.35394	-778.17383	-467.29138	904.70703	-743.86847	-436.60019	838.97437	-743.44843	-310.84518	975.67975	-1204.72729	-280.83655	970.34375	-950.76422	-507.81595	1028.86951	-1098.30713	-500.83875	1027.23914	-983.43262	-420.04733	669.22168	-1233.36755	-483.43134	474.70508	-1194.93921	-565.62866	297.34274	-1190.05298	-587.80713	74.11509	-1148.82544	-626.07269	49.10015	-1097.34302	-433.013	31.67233	-1160.88013	-267.36224	683.6745	-861.41541	-202.20668	487.92963	-895.05963	-242.43086	304.06931	-895.65491	-255.54247	112.74629	-932.43829	-278.76468	57.25531	-995.58203	-110.50797	57.13306	-900.00793	-381.75912	1798.48279	-1021.6543	NaN	NaN	NaN
56	0.55	-254.00948	1732.41443	-1096.68103	-278.68604	1708.53906	-956.34692	-382.87845	1661.52502	-1130.37927	-419.17847	1636.30566	-994.13629	-450.84592	1517.16699	-1062.95972	-505.97461	1241.47131	-1054.16663	-312.52698	1446.79602	-1070.3512	-262.48514	1274.41028	-1066.16162	-513.30713	1341.1604	-1003.50629	-373.40527	1493.9176	-1240.5083	-339.4238	1303.99072	-1338.00342	-289.91754	1171.02673	-1363.85632	-208.04161	1064.44092	-1368.49854	-96.43307	995.1189	-1324.29944	-131.35062	968.49774	-1360.05286	-77.32549	931.013	-1360.65613	-380.05771	1478.4939	-874.74414	-441.60251	1300.44263	-792.32629	-453.54227	1153.86243	-771.08618	-443.4841	1032.68103	-754.61359	-413.59167	901.30194	-778.09998	-459.87387	903.30627	-744.04395	-429.99533	837.07324	-743.39105	-298.57645	973.39783	-1205.37952	-266.78683	967.78656	-951.14197	-495.07327	1026.61877	-1097.23804	-487.38351	1024.9563	-982.81964	-411.97647	668.16168	-1233.56213	-477.60211	474.4827	-1194.83118	-562.35016	298.5546	-1189.64221	-587.41608	75.08559	-1148.4563	-625.73352	50.46588	-1097.01135	-432.95306	31.62602	-1160.98987	-252.87534	681.44324	-862.70239	-186.55293	485.32703	-897.84161	-214.96484	299.24295	-896.59705	-215.71054	107.25758	-932.685	-235.77362	50.40429	-995.37805	-66.7523	60.73822	-902.19391	-368.17599	1796.4801	-1021.70935	NaN	NaN	NaN
57	0.56	-240.40247	1730.27405	-1096.65503	-265.17908	1706.21667	-956.61157	-369.2811	1659.52161	-1130.7688	-405.54846	1634.31104	-994.20258	-437.32202	1515.07495	-1063.64734	-492.53027	1239.38354	-1054.0575	-299.04187	1444.68494	-1070.95654	-249.08247	1272.1781	-1066.64331	-499.17285	1338.80957	-1004.17316	-359.56085	1491.91272	-1240.71387	-323.82877	1303.16736	-1338.78943	-272.04202	1171.18982	-1365.42651	-186.74753	1067.21411	-1369.88831	-72.74729	1002.16925	-1326.06921	-106.90871	973.96301	-1361.43457	-51.38022	938.74255	-1362.30627	-367.50043	1476.34802	-875.52539	-430.12799	1298.58484	-793.51379	-442.61755	1152.2876	-772.013	-433.96771	1030.89954	-755.16492	-405.5798	899.29498	-778.08893	-451.46814	902.02075	-744.2149	-422.90155	835.45825	-743.289	-286.73724	971.22577	-1206.53479	-252.59035	965.23773	-951.35077	-482.18616	1024.34229	-1096.0658	-473.74451	1022.56592	-982.10907	-403.67728	667.09692	-1233.66431	-471.57172	474.2587	-1194.69568	-559.05353	299.66275	-1189.17871	-586.97638	76.10546	-1148.32129	-625.45306	52.14638	-1096.81958	-432.95981	31.45663	-1160.91821	-239.00198	678.65436	-863.92249	-171.46526	482.97717	-900.2782	-187.91319	295.20764	-897.2547	-176.38789	103.09754	-933.14777	-193.99051	45.54911	-995.09698	-23.93175	66.17054	-904.36755	-354.80652	1794.17712	-1021.98401	NaN	NaN	NaN
58	0.57	-226.60651	1728.07947	-1096.77234	-251.77464	1703.88953	-956.6236	-355.53079	1657.45886	-1131.10364	-392.53387	1632.13367	-994.95789	-423.49338	1512.81421	-1064.3103	-478.9213	1237.17493	-1053.83752	-285.41858	1442.39807	-1071.23279	-235.64536	1269.88599	-1066.88318	-485.79984	1336.59009	-1004.66815	-345.59909	1489.78564	-1240.80554	-308.18265	1302.26648	-1339.37109	-254.6256	1171.19312	-1366.78638	-166.06857	1069.89819	-1371.20862	-49.68692	1009.06989	-1327.79126	-83.02483	979.65308	-1362.67786	-26.34763	946.30969	-1363.86133	-353.89777	1474.18884	-875.77045	-418.14899	1296.83606	-794.39313	-431.55756	1150.68359	-772.89038	-423.7774	1029.40088	-755.36798	-396.87823	897.22589	-777.98938	-443.01694	900.59357	-744.32556	-415.23373	833.49316	-743.17731	-273.79568	969.50079	-1206.25745	-238.24133	962.77167	-951.52972	-469.0824	1021.93182	-1094.90173	-459.92911	1020.13159	-981.37567	-395.20477	666.08057	-1233.98328	-465.34625	474.07883	-1194.49878	-555.62903	300.93057	-1188.72729	-586.46698	77.44685	-1148.31812	-625.12982	54.03621	-1096.8186	-432.715	31.54683	-1161.22681	-225.86099	675.35675	-864.91071	-157.32283	480.24213	-902.51025	-161.49454	292.19507	-898.31183	-137.8909	100.67581	-933.19958	-152.77443	42.39302	-994.75647	17.34602	72.44154	-906.55774	-341.15515	1792.08911	-1022.09143	NaN	NaN	NaN
